{
    "asset" : {
        "generator" : "Khronos glTF Blender I/O v0.9.4",
        "version" : "2.0"
    },
    "scene" : 0,
    "scenes" : [
        {
            "name" : "Scene",
            "nodes" : [
                0
            ]
        }
    ],
    "nodes" : [
        {
            "mesh" : 0,
            "name" : "ALDI Logo",
            "rotation" : [
                0.7071068286895752,
                0,
                0,
                0.7071067094802856
            ]
        }
    ],
    "materials" : [
        {
            "name" : "BrandName",
            "pbrMetallicRoughness" : {
                "baseColorFactor" : [
                    1,
                    0.9999997615814209,
                    1,
                    1
                ],
                "metallicFactor" : 0,
                "roughnessFactor" : 0.5
            }
        },
        {
            "name" : "BorderInner",
            "pbrMetallicRoughness" : {
                "baseColorFactor" : [
                    0.7011021971702576,
                    0.0024280808866024017,
                    0.006048848852515221,
                    1
                ],
                "metallicFactor" : 0,
                "roughnessFactor" : 0.5
            }
        },
        {
            "name" : "BorderMiddle",
            "pbrMetallicRoughness" : {
                "baseColorFactor" : [
                    0.8631575703620911,
                    0.1844748854637146,
                    0.00030354782938957214,
                    1
                ],
                "metallicFactor" : 0,
                "roughnessFactor" : 0.5
            }
        },
        {
            "name" : "BorderOuter",
            "pbrMetallicRoughness" : {
                "baseColorFactor" : [
                    0.9822506308555603,
                    0.5457247495651245,
                    2.9802322387695312e-08,
                    1
                ],
                "metallicFactor" : 0,
                "roughnessFactor" : 0.5
            }
        },
        {
            "name" : "Ribbons",
            "pbrMetallicRoughness" : {
                "baseColorFactor" : [
                    0.049706459045410156,
                    0.5271152853965759,
                    0.8713672757148743,
                    1
                ],
                "metallicFactor" : 0.09166663885116577,
                "roughnessFactor" : 0.46666669845581055
            }
        },
        {
            "name" : "InnerBG",
            "pbrMetallicRoughness" : {
                "baseColorFactor" : [
                    0.006995394825935364,
                    0.01520851906388998,
                    0.10224172472953796,
                    1
                ],
                "metallicFactor" : 0,
                "roughnessFactor" : 0.5
            }
        }
    ],
    "meshes" : [
        {
            "name" : "ALDI Logo",
            "primitives" : [
                {
                    "attributes" : {
                        "POSITION" : 0,
                        "NORMAL" : 1,
                        "TEXCOORD_0" : 2
                    },
                    "indices" : 3,
                    "material" : 0
                },
                {
                    "attributes" : {
                        "POSITION" : 4,
                        "NORMAL" : 5,
                        "TEXCOORD_0" : 6
                    },
                    "indices" : 7,
                    "material" : 1
                },
                {
                    "attributes" : {
                        "POSITION" : 8,
                        "NORMAL" : 9,
                        "TEXCOORD_0" : 10
                    },
                    "indices" : 11,
                    "material" : 2
                },
                {
                    "attributes" : {
                        "POSITION" : 12,
                        "NORMAL" : 13,
                        "TEXCOORD_0" : 14
                    },
                    "indices" : 15,
                    "material" : 3
                },
                {
                    "attributes" : {
                        "POSITION" : 16,
                        "NORMAL" : 17,
                        "TEXCOORD_0" : 18
                    },
                    "indices" : 19,
                    "material" : 4
                },
                {
                    "attributes" : {
                        "POSITION" : 20,
                        "NORMAL" : 21,
                        "TEXCOORD_0" : 22
                    },
                    "indices" : 23,
                    "material" : 5
                }
            ]
        }
    ],
    "accessors" : [
        {
            "bufferView" : 0,
            "componentType" : 5126,
            "count" : 1322,
            "max" : [
                8.712979316711426,
                3.802112340927124,
                8.789172172546387
            ],
            "min" : [
                -8.712979316711426,
                -5.769108772277832,
                3.8997490406036377
            ],
            "type" : "VEC3"
        },
        {
            "bufferView" : 1,
            "componentType" : 5126,
            "count" : 1322,
            "type" : "VEC3"
        },
        {
            "bufferView" : 2,
            "componentType" : 5126,
            "count" : 1322,
            "type" : "VEC2"
        },
        {
            "bufferView" : 3,
            "componentType" : 5123,
            "count" : 2154,
            "type" : "SCALAR"
        },
        {
            "bufferView" : 4,
            "componentType" : 5126,
            "count" : 784,
            "max" : [
                11.12215518951416,
                2.0006816387176514,
                13.721325874328613
            ],
            "min" : [
                -11.12215518951416,
                -3.9270496368408203,
                -13.721324920654297
            ],
            "type" : "VEC3"
        },
        {
            "bufferView" : 5,
            "componentType" : 5126,
            "count" : 784,
            "type" : "VEC3"
        },
        {
            "bufferView" : 6,
            "componentType" : 5126,
            "count" : 784,
            "type" : "VEC2"
        },
        {
            "bufferView" : 7,
            "componentType" : 5123,
            "count" : 1644,
            "type" : "SCALAR"
        },
        {
            "bufferView" : 8,
            "componentType" : 5126,
            "count" : 672,
            "max" : [
                12.00022029876709,
                1.4809162616729736,
                14.662631034851074
            ],
            "min" : [
                -12.00022029876709,
                -3.41046142578125,
                -14.662630081176758
            ],
            "type" : "VEC3"
        },
        {
            "bufferView" : 9,
            "componentType" : 5126,
            "count" : 672,
            "type" : "VEC3"
        },
        {
            "bufferView" : 10,
            "componentType" : 5126,
            "count" : 672,
            "type" : "VEC2"
        },
        {
            "bufferView" : 11,
            "componentType" : 5123,
            "count" : 1320,
            "type" : "SCALAR"
        },
        {
            "bufferView" : 12,
            "componentType" : 5126,
            "count" : 560,
            "max" : [
                13.333333015441895,
                0.9666669964790344,
                16.000001907348633
            ],
            "min" : [
                -13.333333015441895,
                -2.900573253631592,
                -16
            ],
            "type" : "VEC3"
        },
        {
            "bufferView" : 13,
            "componentType" : 5126,
            "count" : 560,
            "type" : "VEC3"
        },
        {
            "bufferView" : 14,
            "componentType" : 5126,
            "count" : 560,
            "type" : "VEC2"
        },
        {
            "bufferView" : 15,
            "componentType" : 5123,
            "count" : 996,
            "type" : "SCALAR"
        },
        {
            "bufferView" : 16,
            "componentType" : 5126,
            "count" : 1632,
            "max" : [
                9.186062812805176,
                3.6588456630706787,
                1.8613511323928833
            ],
            "min" : [
                -9.186062812805176,
                -5.585212707519531,
                -10.390177726745605
            ],
            "type" : "VEC3"
        },
        {
            "bufferView" : 17,
            "componentType" : 5126,
            "count" : 1632,
            "type" : "VEC3"
        },
        {
            "bufferView" : 18,
            "componentType" : 5126,
            "count" : 1632,
            "type" : "VEC2"
        },
        {
            "bufferView" : 19,
            "componentType" : 5123,
            "count" : 2448,
            "type" : "SCALAR"
        },
        {
            "bufferView" : 20,
            "componentType" : 5126,
            "count" : 924,
            "max" : [
                10.420271873474121,
                2.51339054107666,
                13.056855201721191
            ],
            "min" : [
                -10.420271873474121,
                -4.439759254455566,
                -13.056854248046875
            ],
            "type" : "VEC3"
        },
        {
            "bufferView" : 21,
            "componentType" : 5126,
            "count" : 924,
            "type" : "VEC3"
        },
        {
            "bufferView" : 22,
            "componentType" : 5126,
            "count" : 924,
            "type" : "VEC2"
        },
        {
            "bufferView" : 23,
            "componentType" : 5123,
            "count" : 1698,
            "type" : "SCALAR"
        }
    ],
    "bufferViews" : [
        {
            "buffer" : 0,
            "byteLength" : 15864,
            "byteOffset" : 0
        },
        {
            "buffer" : 0,
            "byteLength" : 15864,
            "byteOffset" : 15864
        },
        {
            "buffer" : 0,
            "byteLength" : 10576,
            "byteOffset" : 31728
        },
        {
            "buffer" : 0,
            "byteLength" : 4308,
            "byteOffset" : 42304
        },
        {
            "buffer" : 0,
            "byteLength" : 9408,
            "byteOffset" : 46612
        },
        {
            "buffer" : 0,
            "byteLength" : 9408,
            "byteOffset" : 56020
        },
        {
            "buffer" : 0,
            "byteLength" : 6272,
            "byteOffset" : 65428
        },
        {
            "buffer" : 0,
            "byteLength" : 3288,
            "byteOffset" : 71700
        },
        {
            "buffer" : 0,
            "byteLength" : 8064,
            "byteOffset" : 74988
        },
        {
            "buffer" : 0,
            "byteLength" : 8064,
            "byteOffset" : 83052
        },
        {
            "buffer" : 0,
            "byteLength" : 5376,
            "byteOffset" : 91116
        },
        {
            "buffer" : 0,
            "byteLength" : 2640,
            "byteOffset" : 96492
        },
        {
            "buffer" : 0,
            "byteLength" : 6720,
            "byteOffset" : 99132
        },
        {
            "buffer" : 0,
            "byteLength" : 6720,
            "byteOffset" : 105852
        },
        {
            "buffer" : 0,
            "byteLength" : 4480,
            "byteOffset" : 112572
        },
        {
            "buffer" : 0,
            "byteLength" : 1992,
            "byteOffset" : 117052
        },
        {
            "buffer" : 0,
            "byteLength" : 19584,
            "byteOffset" : 119044
        },
        {
            "buffer" : 0,
            "byteLength" : 19584,
            "byteOffset" : 138628
        },
        {
            "buffer" : 0,
            "byteLength" : 13056,
            "byteOffset" : 158212
        },
        {
            "buffer" : 0,
            "byteLength" : 4896,
            "byteOffset" : 171268
        },
        {
            "buffer" : 0,
            "byteLength" : 11088,
            "byteOffset" : 176164
        },
        {
            "buffer" : 0,
            "byteLength" : 11088,
            "byteOffset" : 187252
        },
        {
            "buffer" : 0,
            "byteLength" : 7392,
            "byteOffset" : 198340
        },
        {
            "buffer" : 0,
            "byteLength" : 3396,
            "byteOffset" : 205732
        }
    ],
    "buffers" : [
        {
            "byteLength" : 209128,
            "uri" : "data:application/octet-stream;base64,"
        }
    ]
}
